<?xml version="1.0" encoding="utf-8"?>
<!-- Generator: Adobe Illustrator 22.0.0, SVG Export Plug-In . SVG Version: 6.00 Build 0)  -->
<svg version="1.1" id="Layer_1" xmlns="http://www.w3.org/2000/svg" xmlns:xlink="http://www.w3.org/1999/xlink" x="0px" y="0px"
	 viewBox="0 0 196.2 61.9" style="enable-background:new 0 0 196.2 61.9;" xml:space="preserve">
<style type="text/css">
	.st0{fill:#EC1C26;}
	.st1{fill:#020102;}
	.st2{fill:#FDFCFC;}
</style>
<path class="st0" d="M25.7,29.1c-0.3,2.1-0.6,4.1-0.8,6.2c-0.4,3.3-0.9,6.6-1.3,9.8c0,0.3-0.2,0.4-0.5,0.4c-3.2,0-6.3,0-9.5,0
	c-0.5,0-0.5-0.2-0.5-0.6c-0.3-2.7-0.6-5.4-0.9-8.1c-0.6-5.4-1.2-10.7-1.8-16.1c-0.3-2.5-0.5-5-0.8-7.4c-0.1-0.5,0.1-0.6,0.6-0.6
	c2.3,0,4.6,0,6.9,0c0.5,0,0.6,0.2,0.7,0.7c0.3,4.1,0.6,8.2,0.9,12.3c0.2,2.7,0.4,5.3,0.6,8c0,0.3,0.1,0.5,0.1,0.8c0,0,0,0,0,0
	c0,0,0,0,0,0c0.3-2.7,0.6-5.5,0.8-8.2c0.4-4.2,0.8-8.5,1.2-12.7c0-0.5,0.2-0.7,0.8-0.7c2.5,0,5,0,7.5,0c0.5,0,0.7,0.1,0.7,0.6
	c0.5,5.9,0.9,11.9,1.4,17.8c0.1,0.9,0,1.7,0.3,2.6c0.4-0.9,0.4-2,0.5-3c0.6-5.6,1.2-11.2,1.7-16.7c0.1-1.3,0.1-1.3,1.4-1.3
	c2.1,0,4.2,0,6.2,0c0.5,0,0.6,0.1,0.5,0.6c-0.8,6.7-1.5,13.4-2.2,20c-0.4,3.8-0.9,7.7-1.3,11.5c-0.1,0.5-0.2,0.7-0.7,0.6
	c-3.1,0-6.1,0-9.2,0c-0.5,0-0.6-0.2-0.7-0.6c-0.7-5.2-1.5-10.3-2.3-15.5c0-0.1,0-0.2-0.1-0.4C25.8,29,25.8,29,25.7,29.1z"/>
<path class="st1" d="M126.1,24.9c0,0.8,0,1.6,0,2.3c0,5.9,0,11.7,0,17.6c0,0.5-0.1,0.7-0.6,0.7c-2,0-4.1,0-6.1,0
	c-0.5,0-0.6-0.1-0.6-0.6c0-10.5,0-21.1,0-31.6c0-0.5,0.1-0.6,0.6-0.6c3.2,0,6.4,0,9.7,0c0.4,0,0.6,0,0.7,0.5c0.6,4.5,1.3,9,1.9,13.5
	c0,0.2,0,0.4,0,0.7c0.4-0.3,0.3-0.7,0.3-1c0.5-4.3,1-8.6,1.5-12.9c0.1-0.7,0.3-0.8,1-0.8c3.1,0,6.2,0,9.4,0c0.5,0,0.7,0.1,0.7,0.7
	c0,10.5,0,21,0,31.5c0,0.6-0.2,0.7-0.7,0.7c-2,0-4,0-6,0c-0.6,0-0.7-0.2-0.7-0.7c0-6.6,0-13.3,0-20c-0.3,0.9-0.4,1.8-0.5,2.7
	c-0.8,5.8-1.6,11.7-2.4,17.5c-0.1,0.5-0.2,0.5-0.6,0.5c-1.3,0-2.7,0-4,0c-0.5,0-0.6-0.1-0.7-0.6c-0.6-4.6-1.3-9.2-2-13.9
	c-0.3-1.9-0.5-3.8-0.8-5.7C126.2,25.2,126.3,25,126.1,24.9z"/>
<path class="st0" d="M75.7,27.9c3.4,0.7,4.5,3.1,4.6,6.1c0.1,2.6,0.1,5.1-0.4,7.7c-0.3,1.6-1.1,2.5-2.7,3c-2.1,0.7-4.2,0.8-6.4,0.8
	c-3.1,0-6.3,0-9.4,0c-0.5,0-0.6-0.1-0.6-0.6c0-10.5,0-21.1,0-31.6c0-0.3-0.1-0.7,0.5-0.7c3.4,0.1,6.9-0.1,10.3,0.1
	c1,0.1,2,0.2,2.9,0.5c2.6,0.6,4.2,2.2,4.7,4.8c0.4,1.9,0.5,3.9,0.3,5.8c-0.2,1.9-1.2,3-3,3.6C76.3,27.6,76.1,27.6,75.7,27.9z
	 M69.2,35.3C69.2,35.3,69.2,35.3,69.2,35.3c0,1.3,0,2.7,0,4c0,0.2-0.1,0.5,0.3,0.6c1,0.2,2.1-0.5,2.2-1.5c0.3-1.9,0.3-3.9,0.1-5.9
	c-0.2-1.4-0.6-1.7-2-1.8c-0.5,0-0.6,0.1-0.6,0.6C69.2,32.6,69.2,34,69.2,35.3z M69.2,22C69.2,22,69.2,22,69.2,22c0,1.1,0,2.1,0,3.2
	c0,0.2-0.1,0.4,0.2,0.5c0.9,0.3,2.2-0.4,2.3-1.4c0.2-1.3,0.2-2.6,0.1-3.8c-0.1-1.5-0.6-1.9-2.1-2c-0.4,0-0.6,0.1-0.6,0.5
	C69.2,19.9,69.2,20.9,69.2,22z"/>
<path class="st1" d="M104.9,26.1c0,4.2,0,8.4,0,12.6c0,0.4,0.1,0.7,0.1,1.1c0.1,0.5,0.4,0.8,0.9,0.8c0.5,0,0.9-0.2,1.1-0.7
	c0.3-0.9,0.3-1.8,0.3-2.7c0-7.9,0-15.8,0-23.7c0-0.6,0.1-0.8,0.7-0.7c2.3,0,4.6,0,6.9,0c0.5,0,0.7,0.1,0.7,0.6c0,7.5,0,15,0,22.5
	c0,1.6-0.2,3.3-0.6,4.9c-0.7,2.8-2.5,4.6-5.3,5.2c-2.3,0.5-4.6,0.5-6.9-0.1c-3-0.7-4.7-2.7-5.5-5.6c-0.5-1.7-0.6-3.5-0.6-5.3
	c0-7.2,0-14.3,0-21.5c0-0.5,0.1-0.7,0.7-0.7c2.3,0,4.7,0,7,0c0.6,0,0.7,0.2,0.6,0.7C104.9,17.6,104.9,21.8,104.9,26.1
	C104.9,26.1,104.9,26.1,104.9,26.1z"/>
<path class="st0" d="M174.6,54.7c-0.7-0.3-1.4-0.5-2.1-0.7c-3.3-1.2-6.5-2.5-9.8-3.7c-0.5-0.2-0.5-0.3-0.3-0.8
	c2.9-6.7,5.8-13.3,8.8-20c1.9-4.4,3.8-8.8,5.8-13.2c0.4-1,0.2-0.9,1.3-0.6c2.4,0.9,4.9,1.8,7.3,2.7c0.5,0.2,0.6,0.4,0.4,0.9
	c-2.5,8-5.1,16.1-7.6,24.1c-1.1,3.5-2.2,7-3.3,10.6C174.9,54.3,174.9,54.6,174.6,54.7z"/>
<path class="st1" d="M147.8,29.1c0-5.2,0-10.4,0-15.6c0-0.7,0.2-0.8,0.8-0.8c3.3,0.1,6.7-0.1,10,0.1c1,0.1,2,0.3,3,0.6
	c2,0.6,3.2,1.9,3.7,4c0.3,1.2,0.4,2.4,0.4,3.7c0,2.1,0.1,4.1-0.1,6.2c-0.3,3.2-1.8,4.6-5,5c-1.3,0.1-2.5,0.1-3.8,0.1
	c-0.5,0-0.7,0.1-0.7,0.7c0,3.9,0,7.9,0,11.8c0,0.6-0.1,0.7-0.7,0.7c-2.3,0-4.7,0-7,0c-0.5,0-0.6-0.1-0.6-0.6
	C147.8,39.6,147.8,34.4,147.8,29.1z M156.1,22.5c0,1.2,0,2.5,0,3.7c0,0.3,0.1,0.5,0.4,0.5c1.4,0,2-0.5,2.1-1.9c0.1-1.5,0.1-3,0-4.6
	c-0.1-1.4-0.6-1.9-2-1.9c-0.4,0-0.6,0.1-0.6,0.5C156.2,20.1,156.1,21.3,156.1,22.5z"/>
<path class="st0" d="M44,29.1c0-5.2,0-10.4,0-15.6c0-0.7,0.2-0.8,0.8-0.8c4.1,0,8.3,0,12.4,0c0.6,0,0.8,0.2,0.7,0.8
	c0,1.8,0,3.5,0,5.3c0,0.5-0.1,0.6-0.6,0.6c-1.5,0-2.9,0-4.4,0c-0.5,0-0.7,0.2-0.7,0.7c0,1.6,0,3.2,0,4.9c0,0.5,0.1,0.7,0.6,0.7
	c1.3,0,2.6,0,3.9,0c0.5,0,0.7,0.1,0.7,0.6c0,1.7,0,3.3,0,5c0,0.6-0.2,0.7-0.7,0.7c-1.3,0-2.6,0-3.9,0c-0.5,0-0.6,0.2-0.6,0.6
	c0,2,0,3.9,0,5.9c0,0.6,0.2,0.7,0.7,0.7c1.6,0,3.1,0,4.7,0c0.5,0,0.7,0.1,0.7,0.7c0,1.8,0,3.6,0,5.4c0,0.4-0.1,0.6-0.6,0.6
	c-4.5,0-9,0-13.4,0c-0.6,0-0.5-0.3-0.5-0.7C44,39.6,44,34.4,44,29.1C44,29.1,44,29.1,44,29.1z"/>
<path class="st1" d="M93.4,27.5c-0.1,3.7,0.1,8.1-0.1,12.5c-0.1,1.7-0.4,3.2-1.9,4.3c-1,0.6-2.1,0.9-3.2,1.1c-2,0.2-3.9,0.1-5.9,0.2
	c-0.3,0-0.4-0.1-0.4-0.4c0-1.6,0-3.2,0-4.9c0-0.4,0.2-0.5,0.5-0.5c2.4-0.2,2.6-0.3,2.6-2.8c0-7.8,0-15.5,0-23.3c0-1,0-1,0.9-1
	c2.3,0,4.5,0,6.8,0c0.5,0,0.6,0.1,0.6,0.6C93.4,17.8,93.4,22.3,93.4,27.5z"/>
<path class="st0" d="M191.4,7.7c-0.1,0.2-0.1,0.3-0.2,0.5c-1,2.7-2.1,5.5-3.1,8.2c-0.2,0.4-0.3,0.6-0.8,0.4
	c-3.2-1.2-6.5-2.4-9.8-3.6c-0.4-0.1-0.4-0.3-0.3-0.6c1.1-2.8,2.1-5.6,3.2-8.5c0.2-0.5,0.4-0.5,0.7-0.3c3.2,1.2,6.5,2.5,9.7,3.7
	C191.1,7.4,191.4,7.4,191.4,7.7z"/>
<path class="st2" d="M69.2,35.3c0-1.3,0-2.7,0-4c0-0.5,0.1-0.6,0.6-0.6c1.4,0.1,1.8,0.4,2,1.8c0.2,2,0.2,3.9-0.1,5.9
	c-0.1,1-1.3,1.7-2.2,1.5c-0.4-0.1-0.3-0.4-0.3-0.6C69.2,37.9,69.2,36.6,69.2,35.3C69.2,35.3,69.2,35.3,69.2,35.3z"/>
<path class="st2" d="M69.2,22c0-1,0-2,0-3c0-0.5,0.2-0.6,0.6-0.5c1.5,0.1,2,0.5,2.1,2c0.1,1.3,0.1,2.6-0.1,3.8
	c-0.2,1-1.4,1.7-2.3,1.4c-0.3-0.1-0.2-0.3-0.2-0.5C69.2,24.1,69.2,23,69.2,22C69.2,22,69.2,22,69.2,22z"/>
<path class="st2" d="M156.1,22.5c0-1.2,0-2.4,0-3.6c0-0.5,0.2-0.6,0.6-0.5c1.4,0,1.9,0.5,2,1.9c0.1,1.5,0.1,3,0,4.6
	c-0.1,1.4-0.8,1.9-2.1,1.9c-0.4,0-0.4-0.1-0.4-0.5C156.2,25,156.1,23.8,156.1,22.5z"/>
<g>
	<path d="M13.6,52.4c0-0.6,0-1.1,0-1.5h0.9l0,0.9h0c0.3-0.5,0.8-1,1.8-1c0.8,0,1.4,0.5,1.6,1.1h0c0.2-0.3,0.4-0.6,0.6-0.7
		c0.3-0.3,0.7-0.4,1.2-0.4c0.7,0,1.9,0.5,1.9,2.5v3.3h-1v-3.2c0-1.1-0.4-1.7-1.2-1.7c-0.6,0-1,0.4-1.2,0.9c0,0.1-0.1,0.3-0.1,0.5
		v3.5h-1v-3.4c0-0.9-0.4-1.6-1.2-1.6c-0.6,0-1.1,0.5-1.3,1c-0.1,0.2-0.1,0.3-0.1,0.5v3.4h-1V52.4z"/>
	<path d="M29.3,53.6c0,2.1-1.4,3-2.8,3c-1.5,0-2.7-1.1-2.7-2.9c0-1.9,1.2-3,2.8-3C28.2,50.7,29.3,51.9,29.3,53.6z M24.9,53.7
		c0,1.2,0.7,2.2,1.7,2.2c1,0,1.7-0.9,1.7-2.2c0-1-0.5-2.2-1.7-2.2C25.4,51.5,24.9,52.6,24.9,53.7z"/>
	<path d="M31.5,52.6c0-0.7,0-1.2,0-1.8h0.9l0,1.1h0c0.3-0.8,0.9-1.2,1.6-1.2c0.1,0,0.2,0,0.3,0v1c-0.1,0-0.2,0-0.4,0
		c-0.7,0-1.2,0.5-1.4,1.3c0,0.1,0,0.3,0,0.5v3h-1V52.6z"/>
	<path d="M36.7,53.9c0,1.4,0.9,2,1.9,2c0.7,0,1.2-0.1,1.6-0.3l0.2,0.7c-0.4,0.2-1,0.4-1.9,0.4c-1.7,0-2.8-1.1-2.8-2.8s1-3,2.6-3
		c1.8,0,2.3,1.6,2.3,2.7c0,0.2,0,0.4,0,0.5H36.7z M39.7,53.1c0-0.7-0.3-1.7-1.4-1.7c-1,0-1.5,1-1.6,1.7H39.7z"/>
	<path d="M47.4,49.2v1.6h1.5v0.8h-1.5v3c0,0.7,0.2,1.1,0.8,1.1c0.3,0,0.5,0,0.6-0.1l0,0.8c-0.2,0.1-0.5,0.1-0.9,0.1
		c-0.5,0-0.9-0.2-1.1-0.4c-0.3-0.3-0.4-0.8-0.4-1.5v-3.1h-0.9v-0.8h0.9v-1.4L47.4,49.2z"/>
	<path d="M50.9,48.2h1v3.5h0c0.2-0.3,0.4-0.5,0.7-0.7c0.3-0.2,0.7-0.3,1.1-0.3c0.8,0,2,0.5,2,2.4v3.4h-1v-3.2c0-0.9-0.3-1.7-1.3-1.7
		c-0.7,0-1.2,0.5-1.4,1c-0.1,0.1-0.1,0.3-0.1,0.5v3.4h-1V48.2z"/>
	<path d="M61.4,56.5l-0.1-0.7h0c-0.3,0.4-0.9,0.8-1.7,0.8c-1.1,0-1.7-0.8-1.7-1.6c0-1.4,1.2-2.1,3.4-2.1v-0.1c0-0.5-0.1-1.3-1.3-1.3
		c-0.5,0-1.1,0.2-1.5,0.4l-0.2-0.7c0.5-0.3,1.1-0.5,1.9-0.5c1.7,0,2.1,1.2,2.1,2.3v2.1c0,0.5,0,1,0.1,1.4H61.4z M61.2,53.6
		c-1.1,0-2.4,0.2-2.4,1.3c0,0.7,0.4,1,1,1c0.7,0,1.2-0.5,1.4-0.9c0-0.1,0.1-0.2,0.1-0.3V53.6z"/>
	<path d="M64.8,52.4c0-0.6,0-1.1,0-1.5h0.9l0.1,0.9h0c0.3-0.5,0.9-1.1,1.9-1.1c0.8,0,2,0.5,2,2.4v3.4h-1v-3.3c0-0.9-0.3-1.7-1.3-1.7
		c-0.7,0-1.2,0.5-1.4,1.1c0,0.1-0.1,0.3-0.1,0.5v3.4h-1V52.4z"/>
	<path d="M74.1,58.1c0.5,0,0.9-0.2,1.1-0.4c0.3-0.3,0.4-0.8,0.4-2.1v-4.7h1V56c0,1.1-0.2,1.8-0.7,2.3c-0.5,0.5-1.2,0.6-1.8,0.6
		L74.1,58.1z M76.7,49.3c0,0.3-0.2,0.6-0.6,0.6c-0.4,0-0.6-0.3-0.6-0.6c0-0.4,0.3-0.6,0.7-0.6C76.5,48.6,76.7,48.9,76.7,49.3z"/>
	<path d="M83.9,55c0,0.6,0,1.1,0,1.5H83L83,55.6h0c-0.3,0.5-0.9,1.1-1.9,1.1c-0.9,0-1.9-0.5-1.9-2.5v-3.3h1V54
		c0,1.1,0.3,1.8,1.3,1.8c0.7,0,1.2-0.5,1.4-0.9c0.1-0.2,0.1-0.3,0.1-0.5v-3.5h1V55z"/>
	<path d="M86.3,55.5c0.3,0.2,0.8,0.4,1.4,0.4c0.7,0,1.1-0.4,1.1-0.8c0-0.5-0.3-0.8-1.1-1c-1-0.4-1.5-0.9-1.5-1.6
		c0-0.9,0.7-1.7,1.9-1.7c0.6,0,1.1,0.2,1.4,0.3l-0.3,0.7c-0.2-0.1-0.6-0.3-1.2-0.3c-0.6,0-0.9,0.4-0.9,0.8c0,0.5,0.3,0.7,1.1,1
		c1,0.4,1.5,0.9,1.5,1.7c0,1-0.8,1.7-2.1,1.7c-0.6,0-1.2-0.2-1.6-0.4L86.3,55.5z"/>
	<path d="M93.2,49.2v1.6h1.5v0.8h-1.5v3c0,0.7,0.2,1.1,0.8,1.1c0.3,0,0.5,0,0.6-0.1l0,0.8c-0.2,0.1-0.5,0.1-0.9,0.1
		c-0.5,0-0.9-0.2-1.1-0.4c-0.3-0.3-0.4-0.8-0.4-1.5v-3.1h-0.9v-0.8h0.9v-1.4L93.2,49.2z"/>
	<path d="M103.2,56.5l-0.1-0.7h0c-0.3,0.4-0.9,0.8-1.7,0.8c-1.1,0-1.7-0.8-1.7-1.6c0-1.4,1.2-2.1,3.4-2.1v-0.1
		c0-0.5-0.1-1.3-1.3-1.3c-0.5,0-1.1,0.2-1.5,0.4l-0.2-0.7c0.5-0.3,1.1-0.5,1.9-0.5c1.7,0,2.1,1.2,2.1,2.3v2.1c0,0.5,0,1,0.1,1.4
		H103.2z M103,53.6c-1.1,0-2.4,0.2-2.4,1.3c0,0.7,0.4,1,1,1c0.7,0,1.2-0.5,1.4-0.9c0-0.1,0.1-0.2,0.1-0.3V53.6z"/>
	<path d="M109.9,52.7c0-0.7,0-1.3,0-1.8h0.9l0,1h0c0.4-0.7,1.1-1.1,2-1.1c1.4,0,2.4,1.2,2.4,2.9c0,2-1.2,3-2.6,3
		c-0.7,0-1.4-0.3-1.7-0.9h0v3.1h-1V52.7z M110.9,54.2c0,0.2,0,0.3,0,0.4c0.2,0.7,0.8,1.2,1.5,1.2c1.1,0,1.7-0.9,1.7-2.2
		c0-1.1-0.6-2.1-1.7-2.1c-0.7,0-1.4,0.5-1.6,1.3c0,0.1-0.1,0.3-0.1,0.4V54.2z"/>
	<path d="M117.4,48.2h1v8.3h-1V48.2z"/>
	<path d="M124.2,56.5l-0.1-0.7h0c-0.3,0.4-0.9,0.8-1.7,0.8c-1.1,0-1.7-0.8-1.7-1.6c0-1.4,1.2-2.1,3.4-2.1v-0.1
		c0-0.5-0.1-1.3-1.3-1.3c-0.5,0-1.1,0.2-1.5,0.4l-0.2-0.7c0.5-0.3,1.1-0.5,1.9-0.5c1.7,0,2.1,1.2,2.1,2.3v2.1c0,0.5,0,1,0.1,1.4
		H124.2z M124,53.6c-1.1,0-2.4,0.2-2.4,1.3c0,0.7,0.4,1,1,1c0.7,0,1.2-0.5,1.4-0.9c0-0.1,0.1-0.2,0.1-0.3V53.6z"/>
	<path d="M128.8,49.2v1.6h1.5v0.8h-1.5v3c0,0.7,0.2,1.1,0.8,1.1c0.3,0,0.5,0,0.6-0.1l0,0.8c-0.2,0.1-0.5,0.1-0.9,0.1
		c-0.5,0-0.9-0.2-1.1-0.4c-0.3-0.3-0.4-0.8-0.4-1.5v-3.1h-0.9v-0.8h0.9v-1.4L128.8,49.2z"/>
	<path d="M132.4,56.5v-4.9h-0.8v-0.8h0.8v-0.3c0-0.8,0.2-1.5,0.7-2c0.4-0.4,0.9-0.5,1.4-0.5c0.4,0,0.7,0.1,0.9,0.2l-0.1,0.8
		c-0.2-0.1-0.4-0.1-0.7-0.1c-0.9,0-1.1,0.8-1.1,1.6v0.3h1.4v0.8h-1.4v4.9H132.4z"/>
	<path d="M141.5,53.6c0,2.1-1.4,3-2.8,3c-1.5,0-2.7-1.1-2.7-2.9c0-1.9,1.2-3,2.8-3C140.4,50.7,141.5,51.9,141.5,53.6z M137,53.7
		c0,1.2,0.7,2.2,1.7,2.2c1,0,1.7-0.9,1.7-2.2c0-1-0.5-2.2-1.7-2.2S137,52.6,137,53.7z"/>
	<path d="M143.7,52.6c0-0.7,0-1.2,0-1.8h0.9l0,1.1h0c0.3-0.8,0.9-1.2,1.6-1.2c0.1,0,0.2,0,0.3,0v1c-0.1,0-0.2,0-0.4,0
		c-0.7,0-1.2,0.5-1.4,1.3c0,0.1,0,0.3,0,0.5v3h-1V52.6z"/>
	<path d="M148.4,52.4c0-0.6,0-1.1,0-1.5h0.9l0,0.9h0c0.3-0.5,0.8-1,1.8-1c0.8,0,1.4,0.5,1.6,1.1h0c0.2-0.3,0.4-0.6,0.6-0.7
		c0.3-0.3,0.7-0.4,1.2-0.4c0.7,0,1.9,0.5,1.9,2.5v3.3h-1v-3.2c0-1.1-0.4-1.7-1.2-1.7c-0.6,0-1,0.4-1.2,0.9c0,0.1-0.1,0.3-0.1,0.5
		v3.5h-1v-3.4c0-0.9-0.4-1.6-1.2-1.6c-0.6,0-1.1,0.5-1.3,1c-0.1,0.2-0.1,0.3-0.1,0.5v3.4h-1V52.4z"/>
</g>
</svg>
